<svg id="Camada_1" data-name="Camada 1" xmlns="http://www.w3.org/2000/svg" viewBox="0 0 384 384"><defs><style>.cls-1{fill:#fff;}.cls-2{fill:#29306e;}.cls-3{fill:#fefeff;}.cls-4{fill:#fdf39d;}.cls-5{fill:#3c3b8c;}</style></defs><path class="cls-1" d="M92.68,184.05q0-50.33-.06-100.65c0-2.23.45-2.68,2.68-2.68q189.32.11,378.64,0c2.23,0,2.68.45,2.68,2.68q-.11,189.32,0,378.64c0,2.23-.45,2.68-2.68,2.68q-189.33-.11-378.64,0c-2.23,0-2.69-.45-2.68-2.68q.13-50.7.06-101.39c1.84.08,2,1.68,2.43,2.88,5,14,15.52,20.09,29.81,20.7,2.62.11,5.24,0,7.86,0,4.95.07,5.54.47,6.5,5.28a29.74,29.74,0,0,0,7.53,15.17c6.06,6.38,13.55,9.14,22.08,9.43,6,.2,12,0,18,0h210.6c9.65,0,18.14-2.61,24.8-10.08a29.75,29.75,0,0,0,6.89-14.29c1-5,1.65-5.49,6.71-5.56a102.13,102.13,0,0,0,13.42-.65c14.94-2.18,25.42-13.95,25.44-29.05q.07-66.21,0-132.42c0-9.72-.4-19.47.08-29.17.81-16.18-9.54-31.2-29.4-32.4l-2.62-.13c-4.73-.22-5.43-.82-5.44-5.54,0-7.32-1.93-13.83-7.67-18.74-6.66-5.71-14.27-7.14-22.31-3.65s-12.3,9.85-12.77,18.66c0,.5,0-.12,0,.38-.11,8.9-.11,8.9-9.19,8.89h-2.24c-5.6-.05-5.77-.19-6.66-5.64-2.3-14.1-14.32-24.1-29.44-24.26-13-.13-25.94,0-38.9,0q-42.84,0-85.66,0c-8.85,0-16.65,2.69-22.95,9.18a27.51,27.51,0,0,0-7.68,15.87c-.6,4.32-1.09,4.74-5.46,4.85-2.61.07-5.23,0-7.85,0-3.06,0-4.66-1.32-4.63-4.47,0-1.5,0-3,0-4.49a20.81,20.81,0,0,0-16.39-20.14,21.33,21.33,0,0,0-23.79,11.32,25.48,25.48,0,0,0-2.54,10.84c-.08,6.65-.15,6.68-6.62,7-9.48.43-17.82,3.36-24.07,10.94a28.5,28.5,0,0,0-5.13,9C94.87,181.87,94.79,183.77,92.68,184.05Z" transform="translate(-92.62 -80.72)"/><path class="cls-2" d="M92.68,184.05c.73-.25.68-.93.85-1.51,4.37-14.46,14.87-22.5,30-23,6.59-.2,6.59-.2,6.69-6.88.18-12.34,8.51-21.64,20.64-23,10.54-1.22,20.9,6.2,23.74,17,.91,3.43.7,6.93.63,10.41,0,2,.65,2.62,2.59,2.55,3.36-.12,6.73-.13,10.09,0,1.94.08,2.48-.66,2.71-2.53,2.11-16.67,14.12-27.48,30.79-27.51q62.85-.12,125.68,0c16.74,0,28.83,10.85,30.84,27.45.22,1.81.65,2.67,2.65,2.59,3.36-.13,6.74-.16,10.1,0,2.27.12,2.7-.87,2.65-2.87-.08-3.35-.25-6.73.6-10,2.78-10.76,13.18-18.24,23.71-17.06a22.82,22.82,0,0,1,20.7,21.86c.13,2.59-1.11,5.84.56,7.57,1.52,1.58,4.73.38,7.19.53,18,1.13,29.75,13.58,29.75,31.77q0,81,0,162c0,18.72-12.53,31.42-31.28,31.77-3.74.07-7.48.11-11.22,0-1.91-.07-2.4.58-2.71,2.46-2.88,18-14.31,27.61-32.68,27.61-75.81,0-151.61-.15-227.42.11-18.78.06-31.48-12.72-32.63-27.8-.15-2-1-2.4-2.77-2.38-4.73.05-9.49.19-14.2-.21-13.52-1.13-23.17-9.07-27.19-22-.24-.76,0-1.82-1-2.23Z" transform="translate(-92.62 -80.72)"/><path class="cls-1" d="M284.21,174.59H442.44a24.79,24.79,0,0,1,8.13.89c6.59,2.22,10.26,7.8,10.27,15.67q0,66.21,0,132.41c0,10.1,0,20.2,0,30.3,0,9.57-5.82,15.66-15.35,16.21-1,.06-2,0-3,0H126a26.8,26.8,0,0,1-7.79-.76c-6.34-1.89-10.55-7.67-10.59-14.69-.06-13.09,0-26.18,0-39.27V192.7c0-12.42,5.63-18.1,18-18.11Z" transform="translate(-92.62 -80.72)"/><path class="cls-1" d="M284.23,385.12H411.8c4.39,0,4.52.18,3.29,4.34-1.75,5.89-7,10-13.57,10.63a29.77,29.77,0,0,1-3,.07H170c-8.6,0-14.53-3.84-16.57-10.69-1.24-4.17-1.11-4.35,3.27-4.35Z" transform="translate(-92.62 -80.72)"/><path class="cls-1" d="M284.23,159.58H209c-3.89,0-4.23-.49-3-4.33,2-6.57,7.79-10.66,15.41-10.69,13.84-.05,27.68,0,41.52,0q41.9,0,83.79,0c7.92,0,13.72,4,15.77,10.7,1.18,3.85.86,4.32-3.06,4.32Z" transform="translate(-92.62 -80.72)"/><path class="cls-3" d="M152.76,159.58a4.87,4.87,0,0,1-1.48,0c-2-.7-5.13,1.81-6-1.51-1.47-5.43.49-10.74,4-12.57a7.48,7.48,0,0,1,9.12,1.77c2.87,3.46,1.83,7.61,1.59,11.46-.1,1.66-2.3.67-3.53.83A28.83,28.83,0,0,1,152.76,159.58Z" transform="translate(-92.62 -80.72)"/><path class="cls-3" d="M415.72,159.58c-8.36,0-8.36,0-7.37-8.31a7.4,7.4,0,0,1,6.52-6.61,7.48,7.48,0,0,1,7.87,4.94c1,2.77.44,5.65.57,8.48.07,1.47-1,1.49-2,1.49Z" transform="translate(-92.62 -80.72)"/><path class="cls-4" d="M284.64,197.42q74.63,0,149.24-.08c3.59,0,4.57.91,4.56,4.53q-.19,70.5,0,141c0,3.68-1.08,4.48-4.61,4.47q-149.61-.14-299.23,0c-3.58,0-4.56-.92-4.55-4.53q.18-70.5,0-141c0-3.68,1.09-4.49,4.61-4.48Q209.65,197.51,284.64,197.42Z" transform="translate(-92.62 -80.72)"/><path class="cls-5" d="M318.52,242.53" transform="translate(-92.62 -80.72)"/><path class="cls-5" d="M317.94,298.56" transform="translate(-92.62 -80.72)"/></svg>